<?xml version="1.0" encoding="UTF-8"?>
<svg id="Layer_1" data-name="Layer 1" xmlns="http://www.w3.org/2000/svg" viewBox="0 0 1851.58 1146.3">
  <defs>
    <style>
      .cls-1 {
        fill: #fff;
      }
    </style>
  </defs>
  <path class="cls-1" d="m1084.69,791.85c15.79,3.45,22.07,13.3,15.9,26.71-3.07,6.68,1.6,7.12,4.81,8.43,4.38,1.79,9.08.53,8.84-4.91-1.09-24.82,7.73-51-13.16-73.13-5.79-6.13-7.14-16.45-16.75-20.72-8.38-3.72-14-1.11-16.72,6.37-6.21,17.06-15.01,33.91-8.1,53.09,1.15,3.19,3.73,7.29-2.91,7.98-10.06,1.05-13.18,9.5-14.04,16.91-3.23,27.83-6.34,55.2-1.84,83.94,3.52,22.44,5.78,45.85,6.28,69.01.86,39.71,6.81,78.86,13.31,117.94,2.14,12.86,5.34,25.7,5.84,38.63.31,7.99,5.72,14.31,5.28,24.19-6.18-8.46-7.66-16.6-9.33-24.61-7-33.63-15.36-67.12-18.83-101.28-2.51-24.74-3.19-49.71-5.97-74.49-5.11-45.58-6.89-91.28-8.13-137.15-1.04-38.51-2.89-77.1-4.68-115.62-1.6-34.18,2.55-68.15.57-102.23-.42-7.33.1-14.03-7.35-19.26-5.3-3.72-6.17-11.32-7.66-17.7-1.41-6.01-4.53-8.42-10.64-6.31-1.91.66-3.94,1.11-5.95,1.32-26.65,2.78-30.97,7.88-23.91,33.92,2.97,10.96,3.69,21.67,3.54,32.58-.19,13.68,5.48,26.42,6.28,39.56,2.05,33.9,2.2,67.88,5.43,101.77,1.86,19.53.54,39.35.97,59.04.13,6.11,4.82,10.82,5.62,17.2,3.03,24.46,1.93,48.81-.08,73.21-2.66,32.33.18,64.35,5.31,96.26,1.1,6.85,1.8,13.82,2.04,20.75.52,14.86,8.83,27.19,14.3,43.48-12.36-11.71-15.57-25.13-19.71-37.54-9.23-27.67-5.77-57.45-12.62-85.57-5.94-24.36-5.04-49.47-8.54-73.84-4.29-29.86-13.67-59.43-24.56-87.69-4.42-11.47-13.83-26.63-30.83-25.02-11.22,1.06-20.5,8.54-27.55,17.87-17.18,22.74-15.37,48.99-15.12,75.4.22,22.9,11.49,39,26.95,53.71,2.66,2.53,5.22,4.25,8.51,2.97,3.46-1.35,1.41-5.11,2.3-7.58,3.18-8.82,2.17-18.28,5.4-27.3,3.27-9.13,1.7-19.09-3.75-28.07-4.15,2.57.04,11-7.38,9.54-5.35-1.05-5.77-6.43-6.58-10.77-1.48-7.94,1.6-15.32,3.5-22.78.73-2.86,3.16-4.29,6.51-4.63,12.43-1.24,29.75,17.31,25.9,28.97-6.5,19.67-4.66,40.68-10.88,60.51-2.23,7.12-6.65,13.87-6.63,21.96,0,2.51-4.11,6.96-6.36,1.48-5.22-12.72-17.4-19-25.3-29.28-22.68-29.52-32.37-60.79-25.15-98.79,3.99-21,15.71-34.41,28.93-47.74,18.24-18.4,18.42-17.14,40.99-3.52,10.95,6.61,18.5,15.39,24.98,25.72,1.97,3.14,3.9,6.03,8.76,8.13-10.13-74.54-9.43-148.88-14.11-223.43-10.96,1.81-18.41,3.61-20.33,17.71-2.77,20.32-21.63,30.23-41.88,24.53,11.57-4.63,23.16-10.72,22.59-21.79-1.04-20.47,12.44-23.14,26.22-24.78,10.82-1.29,12.63-5.97,11.33-15.22-3.6-25.61-6.79-51.27-10.26-76.9-.26-1.95-.95-4.35-2.3-5.58-17.34-15.62-35.01-30.84-59.12-42.27,9.44,15.69,17.37,28.71,26.14,41.38-9.83-2.15-14.18-10.57-20.37-16.39-18.72-17.62-29.89-40.47-41.34-63.09-17.65-34.86-22.78-72.76-28.22-110.72-3.9-27.22-6.62-54.2-2.63-81.79,2.92-20.19,11.48-38.49,16.26-57.9,7.66-31.11,21.25-59.52,39.9-84.75,11.86-16.04,26.71-30.71,44.08-41.92-3.68,11.74-13.25,18.65-21.25,26.72-25.53,25.71-43.52,55.64-52.26,91.02-3.38,13.68-9.74,26.31-13.32,40.13-6.65,25.61-11.04,50.99-5.65,77.03,6.52,31.54,14.45,62.67,31,90.96,4.16,7.11,5.02,16.17,7.15,24.21,8.23,31.13,30.96,48.44,56.4,63.66,5.22,3.12,10.42,6.13,15.42,9.65,5.89,4.15,9.98,4.48,10.48-5.31,1.12-22.03,1.5-44.39,5.86-65.88,3.07-15.14,4.83-29.05-.77-43.46-3.06-7.9,5.53-12.33,5.31-20.03-.91-30.7-.72-61.43-.86-92.15-.08-16.8-.01-33.59-.01-51.15,7.78,4.28,3.79,10.18,3.23,14.9-1.64,13.88,1.63,27.4,2.77,41.01,2.78,33.16-.54,66.56,2.48,99.44,4.98,54.24-.34,109.29,12.56,162.81,3.09,12.83,6.83,25.36,6.39,39.22-7.05-5.33-4.82-15.37-12.44-19.35.05,7.46.3,14.93.1,22.39-.29,10.99,4.53,21.56,2.22,32.78-1.18,5.75,2.74,6.2,7.57,6.06,11.67-.34,22.07-5.55,33.18-8,3.85-.85,3.79-4.77,4.04-8.12,2.46-32.63,3.9-65.38,7.85-97.83,2.77-22.74,4.23-45.83,10.79-68.08,1.57-5.33.76-11.36,1.1-17.07.37-6.15.32-12.57,8.25-14.68-4.24,54.26-14.98,108.06-11.83,163.33,14.02-19.08,29.89-35.86,47.14-51.43,17.81-16.08,33.85-34.03,52.43-49.34,3.29-2.71,7.73-4.74,7.96-11.03.95-26.01,3.22-51.98,4.13-77.99.81-22.88-4.74-45.04-8.54-67.47-3.58-21.14-8.54-41.85-13.42-62.64-1.81-7.71-4.28-15.28-6.88-24.45,7.35,2.46,9.93,6.19,12.21,11.89,10.95,27.32,14.21,56.28,20.25,84.74,6.1,28.77,10.07,57.56,11.14,86.77.81,22.11.42,44.27.07,66.4-.15,9.32-1.65,18.62-2.38,27.94-.22,2.86-1.42,4.67-4.2,5.15-2.96.51-4.64-1.52-5.63-3.79-4.34-9.97-10.66-7.39-17.15-2.75-31.44,22.47-60.34,47.71-83.2,79.1-4.83,6.63-8.57,14.65-9.16,25.02,21.74-2.21,43.1-12.31,67.39,1.05-14.75-.18-26.06,3.94-37.94,5.47-1.62.21-3.28.14-4.92.07-8.35-.38-19.42-.8-22.09,6.66-2.41,6.71,1.95,16.43,8.4,22.85,14.22,14.14,7.38,30.72,3.78,45.91-4.63,19.54-5.04,39.49-8.36,59.13-4,23.66-.5,47.82-1.64,71.78-.5,10.58-5.06,23.1,2.66,35.53,5.16-31.63,26.13-56.97,25.25-90.22,7.42,16.49,25.27,21.55,34.11,34.61,11.8,17.43,22.79,36.1,28.12,56.77,3.99,15.47,6.59,31.99-3.28,46.68-6.66,9.92-16.5,10.53-26,2.98-12.5-9.93-13.71-23.29-11.99-37.73l-.02.02Z"/>
  <path class="cls-1" d="m430.26,139.92c-18.27,11.73-29.99,28.38-43.52,43.21-22.54,24.7-37.36,52.25-35.18,88.17,2.24,36.96,13.58,73.47,6.88,110.88-5.85,32.64-6.53,66.03-15.73,98.22-7.53,26.36-21.12,49.16-37.07,70.91-1.81,2.46-1.97,2.34-10.27,5.23,6.97-18.7,15.33-35.92,20.58-54.36,13.37-46.96-3.52-74.32-35.06-103.37-4.95-4.56-10.83-3.92-15.68-.58-4.51,3.11-8.88,5.2-14.58,5.46.42-1.21.49-1.97.89-2.46,3.34-4.1,12.45-4.07,11.73-9.18-.89-6.27-9.16-6.77-14.84-8.52-8.5-2.62-17.09-4.95-26.55-7.66,5.91-5.95,11.68-4.18,17.37-2.34,8.11,2.61,16.03,5.97,24.29,7.89,9.48,2.2,12.18-1.33,9.07-10.47-5.89-17.34-35.47-29.63-52.57-21.51-22.69,10.78-35.45,29.86-44.71,52.53-9.87,24.15,2.23,40.74,16.69,57.36,13.88,15.95,30.48,29.97,36.74,51.48,1.25,4.31,3.49,8.32,3.1,13-1.36,16.49,7.78,24.51,21.8,31.16,9.92,4.7,19.11,12.61,26.27,21.08,13.35,15.78,9.09,38.34-9.54,48.36-41.67,22.42-84.39,42.99-131.14,52.4-22.32,4.49-45.46,3.37-68.28,3.62-8.09.09-15.85-.18-24.03,2.44-17.12,5.49-39.56-11.35-43.44-28.77-6.49-29.13-2.84-57.9,2.5-86.2,3.37-17.85,14.68-33.15,25.38-48.23,16.29-22.96,38.1-37.77,63.58-48.47,17.62-7.4,25.47-2.16,24,17.25-.65,8.62-2.5,16.77-11.71,25.74,3.91-12.89,9.44-22.48,4.85-33.12-7.37.64-8.65,8.01-13.11,11.74-22.49,18.83-47.24,36.26-59.3,64.19-13.22,30.6-25.71,62.03-17.26,96.56,2.28,9.31,8.7,15.88,21.26,13.53-4.82-7.41-4.83-15.02-3.21-22.45.75-3.44,3.72-7.32,7.97-5.94,5.68,1.84.61,5.19,0,7.62-2.16,8.48,4.36,17.95,13.63,18.73,24.95,2.1,49.54,0,73.83-6.24,35.9-9.22,68.34-25.87,99.49-45.44,1.67-1.05,3.57-2.14,5.46-2.33,8.66-.87,13.94-4.69,15.87-13.86,2.33-11.04,3.22-20.46-8.56-27.29-15.9-9.22-15.56-9.61-23.85,7.2-5.14,10.42-8.79,22.07-20.94,27.44,12.21-17.39,18.69-36.48,17.94-57.6-.85-24.05-8.38-44.42-28.19-60.61-20.76-16.96-37.73-38.13-46.35-64.03-5.07-15.22.71-30.69,7.69-44.2,3-5.8,6.25-12.08,10.3-17.64,17.43-23.93,37.92-41.52,70.34-37.99,19.89,2.16,44.47,20.72,49.83,39.4,1.73,6.03.97,12.54-1.93,18.03-3.18,6.02-.88,8.7,4.15,11.53,11.99,6.75,22.38,15.51,31.8,25.57,2.25,2.4,5.66,5.79,9.57,3.91,4.31-2.07,2.48-6.66,1.79-9.88-3.18-14.74-7.42-29.16-8.77-44.37-1.55-17.34-4.12-34.09.21-51.82,3.89-15.95,2.82-32.87,8.09-49.06,13.48-41.44,38.01-75.34,68.66-105.37,6.63-6.5,13.84-12.39,20.8-18.56,2.33-2.07,4.18-5.37,11.04-1.93h-.06Zm-90.17,229.49c4.11-13.51,2.56-26.47-4.01-38.93-5.01,13.6-1.2,26.34,4.01,38.93Z"/>
  <path class="cls-1" d="m1842.31,691.29c-5.97-50.9-15.71-99.64-53.59-137.5-.86,10.29,11.55,15.67,9.56,27.44-10.33-7.56-15.33-18.3-18.2-28.7-5.45-19.75-21.05-25.56-37.13-27.3-22.31-2.41-43.75-8.3-61.82-19.73-20.55-13-40.69-27.69-57.72-45.73-2.53-2.68-4.42-8.55-9.37-4.77-4.74,3.63-1.55,9.47,1,11.99,26.54,26.36,38.4,60.62,50.87,94.36,5.08,13.75,1.8,28.95,2.93,43.47.75,9.68-1.28,19.76,1.22,29.44,2.25,8.74,2.64,17.45,2.52,26.42-.57,42.64,5.4,84.64,15.76,125.8,6.87,27.29,17.1,53.72,25.58,80.61,3.95,12.54,10.65,24.38,10.6,39.96-9.18-14.46-11.82-29.57-17.18-43.56-11.95-31.2-24.89-62.39-30.55-95.25-3.48-20.19-8.36-40.25-9.51-61.17-2.24-40.85-1.96-82.29-12.57-122.14-7.53-28.27-12.86-57.62-29.39-82.83-3.41-5.2-7.48-9.62-13.53-14.3,1.71,40.36,1.48,79.62,9.99,118.33,2.77,12.58,2.9,25.74,4.14,38.64.22,2.35-.82,5.08.07,7.03,1.44,3.17,5.69,6.3-.85,8.03-4.15,1.1-7.53.14-9.59-4.97-3.83-9.49-2.15-19.48-3.14-29.09-4.25-41.32-9.86-82.37-18.2-123.06-.41-1.98-.32-4.11-.18-6.15,1.73-23.98-7.31-41.8-24.89-59.11-18.05-17.77-36.85-36.65-45.57-62.02-.23-.67.05-1.52.12-2.8,4.34-.5,6.52,2.31,8.24,5.45,12.79,23.34,36.67,30.41,58.76,39.99,4.29,1.86,5.64-1.27,5.85-5.18,1.26-24.48,4.96-48.74,5.22-73.35.34-33.06,6.15-65.69,10.31-98.41,2.61-20.54,7.65-40.79,6.63-61.73-.23-4.71.15-8.42,4.79-12.6,8.34-7.53,2.8-18.41,2.25-27.79-.49-8.38-2.66-16.66-4.41-26.83,12.78,10.92,14.54,25.68,19.87,38.28,17.67,41.75,12.62,86.14,15.7,129.83,1.83,26.05,3.34,53.19,15.81,78.99,11.62,24.05,31.16,40.45,45.66,61.36,6.05,8.72,11.33,18.2,15.01,27.35,6.29,15.6,16,28.58,24.57,42.5,14.98,24.34,37.1,42.87,53.62,66.03,3.97,5.57,2.8,11.66,5.69,17.03,11.29,20.95,17.74,43.55,22.85,66.71,2.53,11.47,6.98,22.52,10.79,33.68,1.15,3.37,1.41,3.02-3.25,5.02-5.49,2.36.13,9.7-5.32,12.35l-.02-.02Zm-213.63-420.45c-4.1,6.13-4.38,11.12-5.35,16.16-3.39,17.59-.03,35.84-4.99,53.09-3.3,11.46-6.82,22.37-7.62,34.72-1.22,18.62,4.24,36.04,5.16,54.06.41,7.91,3.24,12.3,9.46,15.38,31.73,15.71,63.05,31.79,90.88,54.36,12.25,9.93,27.71,15.88,43.11,24.42-.64-3.3-.52-4.41-.99-4.8-24.5-20.24-39.79-48.48-61.53-71.01-19.39-20.09-35.84-42.87-57.24-61.1-9.63-8.2-7.43-23.66,4.18-28.06,6.01-2.28,7.13-5.32,6.98-10.79-.73-26.92-13.59-50.08-22.04-76.43h-.01Zm-64.69,146.33c-.6.96-1.2,1.92-1.8,2.89,7.44,7.01,14.71,14.23,22.42,20.93,2.7,2.34,6.17,7.83,9.94,3.49,2.75-3.16.18-8.4-3.01-11.5-7.86-7.63-17.88-11.45-27.56-15.8h.01Z"/>
  <path class="cls-1" d="m1449.52,26.42c4.51,2.98,4.05,6.04,2.83,8.57-7.84,16.34-5.56,34.31-8.68,51.39-2.89,15.82-1.79,31.69-2.53,47.53-1.47,31.52,7.07,62.3,5.69,93.95-.93,21.23-3.18,41.75-9.85,61.9-4.55,13.77-8.41,27.77-12.35,41.74-2.44,8.67.82,16.74,3.03,26.2,6.62-6.24,1.17-13.27,3.6-18.93,1.09-2.53,1.03-6.36,4.59-5.81,3.75.58,3.09,4.47,2.59,7.14-2.78,14.9.73,27.43,12.64,37.46,5.03,4.24,9.5,9.29,6.7,17.46-5.18-.61-5.47-7.71-11.41-8.61,2.52,18.17-2.2,36.1-.62,53.97,1.93,21.81-1.41,43.35-2.27,64.93-.69,17.38-3.79,34.62-.6,52.05.34,1.86.29,3.6-1.57,3.83-3.47.43-7.97,2.12-9.86-2.18-3.92-8.93-7.92-4.18-11.66-.36-20.05,20.49-25.69,45.26-19.09,72.45,1.96,8.08,3.26,15.81,3.3,23.99.02,5.29-.46,11.06,1.41,15.76,2.87,7.23,6.36,11.63-5.29,15.03-4.26,1.24-7.62,13.7-7.19,20.77.53,8.59-4.46,16.49-1.92,25.15-4.01-9-7.4-18.42-6.06-27.96,5.44-38.63-15.57-62.31-44.64-81.84-2.59-1.74-3.77-5.52-7.72-5.34-1.74,10.7,13.03,16.27,8.17,30.9-7.27-14.09-13.38-25.93-19.48-37.76-4.25,25.45-11.69,49.4-5.72,76.02,5.45,24.25,16.93,49.22,5.6,74.44-3.83-12.71-1.28-27.67-7.95-40.92-14.74-29.29-25.43-60.31-36.21-91.14-8.52-24.36-14.52-49.7-20.26-74.92-6.97-30.62-13.2-61.45-18.33-92.42-2.71-16.37-8.78-32.08-10.28-48.37-2.27-24.7,1-49.25,7.93-73.3,3.21-11.14,1.99-23.06-1.11-33.96-8.06-28.39-9.65-57.9-18.94-86.42-8.71-26.73.72-54.52,17.22-78.3.2,14.27-5.88,27.61-10.3,40.15-5.81,16.47,1.49,29.15,6.33,41.11,6.57,16.24,11.76,32.33,15.13,49.4,2.06,10.43,6.56,20.35,9.28,30.68,3.45,13.13,4.04,25.85-.46,39.56-4.36,13.28-3.17,28.32-7.02,41.84-5.42,19.03,2.5,36.51,3.66,54.7.28,4.44.3,8.89.58,13.33,2.44,38.59,13.01,75.86,19.04,113.88,3.81,24,9.68,47.98,18.66,70.9,1.13,2.88.35,7.4,4.92,7.05,4.45-.34,5.57-3.93,5.44-8.16-.62-19.42,6.51-38.84-.16-58.29-.75-2.18-.01-6.43,2.93-4.99,9.71,4.78,9.28-3.78,11.94-8.23,4.16-6.99,7.39-14.67,12.34-21.03,14.47-18.62,14.27-38.84,8.66-60.27-3.39-12.94-.03-25.92,1.32-38.85.68-6.45,7.4-4.38,10.58-7.89-4.76,14.36-6.66,28.32-4.06,43.12,1.14,6.47,3.7,12.07,7.38,16.39,11.24,13.17,5.71,24.37-2.46,35.69-9.42,13.06-14.04,28.3-18.21,43.4-2.29,8.28,4.8,16.1,9.6,21.65,13.6,15.72,25.48,33.31,43.02,45.31,2.56,1.75,5.41,5.33,8.58,3.27,3.62-2.35.34-6.04-.42-8.92-5.48-20.61-7.56-41.42-4.84-62.67.65-5.04,1.83-8.86,6.33-12.32,15.85-12.2,25.65-29.46,35.58-46.25,5.63-9.52,1.46-20.94,2.06-31.46,1.24-21.65,1.07-43.38,1.6-65.07.28-11.5-2.54-22.84-9.64-31.04-6.49-7.49-9.15-14.81-9.29-24.06-.24-14.72-10.34-24.46-18.63-34.85-4.51-5.65-4.39-8.73-.43-15.4,12.72-21.41,29.73-41.75,34.67-65.96,4.57-22.4,1.62-46.5.67-69.8-.39-9.48,1.48-18.57,1.56-27.93.27-30.01.85-60.07,7.44-89.59,2.54-11.39,6.86-22.04,12.89-32.5h.02Zm-28.57,252.02c-3.57,8-7.01,16.07-10.75,23.99-2.4,5.09-5.82,9.76-7.7,15-1.42,3.98,0,8.82,4.69,9.54,4.38.67,4.69-4.12,4.46-7.07-.48-6.06,2.54-10.78,4.46-16.06,2.95-8.1,8.15-15.67,4.84-25.4h0Z"/>
  <path class="cls-1" d="m693.05,463.38c-16.67,2.56-24.03,13.46-34.27,19.75-6.81,4.19-5.37,11.92-4.81,17.97,1.95,21.28-1.12,42.5-.76,63.37.33,18.91-5.82,36.26-5.61,54.73.12,10.49-5.45,20.63-7.26,31.39-4.06,24.16,1.79,47.65,2.82,71.44.49,11.29.64,22.39,4.23,33.62,2.81,8.79-1.41,18.89-5.06,27.3-8.33,19.18-4.35,38.27-1.74,57.41,2.18,15.95,5.37,31.77,7.14,47.86-9.03-9.33-8.77-21.79-11.68-33.07-8.65-33.58-13.5-67.7-13.14-102.43.31-29.39.73-58.77,3.02-88.11,1.33-17.02,1.61-34.05,3.23-51.12,3.19-33.59,1.76-67.66,1.36-101.51-.09-7.31-4.61-14.17-4.99-22.16-.39-8.18-4.49-16.3,9.37-15.13,2.69.23,3.31-2.95,3.49-5.61,1.62-23.43,12-53.33,25.36-72.4,2.52-3.6,5.7-6.32,10.43-7.95,10.53-3.63,15.56-14.09,11.39-24.49-15.8-39.43-13.88-80.63-12.38-121.67.44-11.96,4.51-23.8,7.08-35.66.72-3.33,4.12-3.98,6.7-5.99,2.51,13.24-1.22,25.83-2.7,38.08-3,24.84,4.75,48.05,6.7,72.05,2.34,28.82,15.99,54.74,22.1,82.64.89,4.07,1.43,7.99,1.39,12.1-.04,4.17.36,9.16-4.61,10.18-5.46,1.12-3.55-5.31-5.55-7.15-3.43-3.16-5.12-9.34-13.99-3.65-15.77,10.11-21.65,25.51-28.91,40.64-1.3,2.71-2.53,6.89.63,9.06,2.64,1.82,6.21.85,9.36-.51,33.77-14.59,68.98-23.73,105.44-28.38,5.18-.66,10.11-3.25,15.29-4.12,2.69-.45,6.97-2.67,8.3,1.86,1.01,3.45-2.59,4.7-5.02,6.06-16.41,9.19-33.71,17.1-49.08,27.79-17.95,12.49-39.79,20.31-50.92,41.75-11.73,22.6-14.32,46.79-12.33,71.18,1.17,14.32.92,28.66,2.39,42.91,2.02,19.53,4.28,38.78,22.7,51.36,8.36,5.71,11.31,15.66,10.61,24.96-2.67,35.49-16.72,67.73-31.7,99.82,2-11.32,3.26-22.83,6.13-33.92,7.33-28.29,6.45-56.42-.91-84.37-1.23-4.67-5.25-9.54-9.33-12.37-14.28-9.89-18.51-25.24-19.42-40.29-1.69-27.75-3.38-56.07.38-83.4,3.39-24.57,9.73-49.82,29.12-71.83h.01Z"/>
  <path class="cls-1" d="m528.93,463.16c38.53-28.03,79.25-51.68,126.79-66.81-5.78,11.13-13.33,18.03-21.52,24.51-34.15,27.05-60.59,58.99-66.78,104.15-1.99,14.49.59,28.49,2.66,42.55,1.89,12.8,5.69,25.22,7.14,38.22,1.45,12.98,12.22,19.67,22.95,23.88,7.55,2.97,12.43,7.34,12.7,14.41.96,25.34,2.68,50.76-1.58,76.01-.32,1.92-1.36,3.72-2.78,7.44-2.21-4.38-5.91-5.15-4.48-10.53,5.6-21.12,2.15-41.93-4.35-62.22-4.02-12.57-16.79-17.15-26.3-23.7-12.68-8.73-18.96-20.52-23.68-33.84-13.39-37.78-12.09-76.8-8.5-116.02-23.61,4.88-24.5,16.48-19.96,37.74,5.99,28.02,9.55,56.42,15.48,84.42,5.97,28.23-9.45,50.36-22.67,72.73-7.26,12.28-15.37,24.21-24.34,35.3-13.25,16.38-21.28,35.44-30.36,54.03-.96,1.97-.96,5.12-6.17,5.49,4.3-16.03,11.05-30.42,18.43-44.33,12.22-23.04,26.67-44.5,32.2-71.16,3.07-14.84,10.09-29.12,8.7-44.72-1.17-13.11-4.02-25.96-8.03-38.74-3.96-12.63-4.52-26.33-6.52-39.57-1.21-8.01-2.3-16.03-3.43-23.97-3.96-1.9-3.58,1.81-4.94,3.45-1.25,1.51-3.03,3.2-5.14,1.27-1.67-1.52-2.13-3.73-.55-5.48,22.69-25.07,19.43-59.21,30.28-88.5,13.78-37.2,33.85-69.11,59.56-98.7,13.63-15.68,28.1-30.16,43.86-43.46,6.21-5.24,12.63-10.85,24.29-11.76-10.76,9.61-20.36,16.89-28.4,25.6-20.32,22.03-37.96,45.98-50.6,73.47-13.64,29.67-24.1,60.46-34.11,91.46-.6,1.86-2.24,3.57.12,7.39h.03Z"/>
  <path class="cls-1" d="m827.17,457.26c-14.34.73-26.42,1.87-37.14,8.66-6.21,3.93-8.93,5.93-.27,11.15,23.76,14.32,44.6,32.28,62.92,53.3,11.71,13.43,17.37,49.77,8.79,64.95-3.29,5.81-10.01,1.04-14.23,4.34,1.44,4.12,5.15,3.12,8.17,3.96,31.1,8.63,45.36,23.26,50.6,54.14,4.17,24.59-10.84,49.6-33.89,59.45-7.02,3-12.78,8.72-20.93,9.41-11.19.96-21.55-.85-31.54-6.52-17.1-9.71-19.97-18.58-10.32-35.53,4.44-7.81,15.17-10.43,24.77-6.04-12.29,5.22-16.81,12.68-13.24,21.84,2.8,7.19,15.82,12.61,25.75,8.66,10.02-3.98,20.49-7.83,28.96-14.9,18.36-15.32,15.58-52.22-4.55-65.35-10.09-6.58-21.17-10.28-32.83-12.61-6.59-1.32-11.89.35-15.94,6.04-14.85,20.88-34.42,35.02-59.5,41.06-39.62,9.55-70.23-18.17-69.31-51.79.59-21.57,13.74-39.48,29.36-54.48,4.64-4.46,9.65-8.67,15.02-12.19,3.03-1.99,3.55-3.66,2.91-6.92-3.54-17.93-3.36-36.58-10.25-53.87-1.42-3.55,1.75-4.08,3.29-5.55,21.23-20.25,47.58-25.69,75.6-25.14,5.03.1,11.13-3.83,17.79,3.95v-.02Zm10.19,138.64c-20.16-4.25-40.72-11.88-59.4,3.91-4.22,3.57-8.16,3.15-10.51.37-2.85-3.37-1.05-7.1,3.03-10.08,4.89-3.57,7.12-10.9,15.49-9.26,2.42.47,5.92-1.14,4.82-5.29-2.89-10.83-27.18-28.29-37.96-26.24-12.06,2.29-18.07,12.89-24.39,21.81-6.42,9.07-12.97,18.42-14.34,30.28-1.18,10.2,5.9,16.5,9.97,24.19,3.19,6.02,7.07-.67,10.59-.04,1.38.25,3.04,1.33,3.74,2.52,1.05,1.79-.77,2.73-2.04,3.76-1.85,1.51-6.81.87-4.51,5.37,1.38,2.69,4.45,3.08,7.49,3.35,20.49,1.8,38.8-5.71,52.26-19.28,13.35-13.47,26.45-23.75,45.78-25.38h-.02Zm-4.66-27.5c-2.62-9.26-3.67-20.45-8.74-29.34-11.16-19.58-26.81-35.08-49.06-42.38-2.26-.74-4.66-2.86-6.58-.32-2,2.64-3.57,6.78-1.32,9.16,5.79,6.12,6.54,14.27,9.3,21.41,8.97,23.17,26.84,36.59,47.84,47.28,5.91,3.01,9.42,3.22,8.57-5.81h-.01Z"/>
  <path class="cls-1" d="m1109.59,536.38c2.4-7.78,2.72-16.01,1.52-23.88-1.97-12.92,10.54-19.3,12.47-30.52.72-4.21,6.54-2.26,9.61-.48,30.1,17.39,56.63-4,62.52-35.92,1.54-8.36,5.21-16.3,4.28-25.15-.25-2.34-1.21-6.59,3.58-5.97,3.72.48,3.99,3.99,3.58,6.8-1.68,11.34-2.98,22.69-1.7,34.13,2.09,18.75-.37,38.17,8.14,57.55,2.42-10.88-1.44-21.12,4.51-30.22,7.94,2.34,6.32,9.35,6.19,14.77-.54,22.52-3.57,45.58,3.1,67.2,7.48,24.29,3.22,51.17,19.29,73.87,6.42,9.07,4.8,23.51,4.87,36.36-11.42-8.9-5.61-23.54-13.2-34.29-5.75,8.47-12.15,15.56-20.18,21.05-5.67,3.88-4.15,9.12-1.93,14.17,2.73,6.21,5.77,12.29,8.5,18.51,5.83,13.26-.55,26.42-14.62,30.37-10.14,2.84-17.1,2.61-32.26-1.19,5.42,9.29,14.85,13.86,21.4,21.06,6.38,7.01,14.48,14.62,12.13,28.29-13.81-25.56-38.91-37.46-56.73-56.76-12.3-13.33-28.67-21.3-39.88-36.4-19.42-26.15-21.98-54.2-15.69-84.15,2.56-12.2,9.41-23.14,16.27-33.52,3-4.54,6.27-9.2,14.14-9.6,6.85-.35,10.38-8.35,11.24-15.55.42-3.48,1.29-5.48,5.06-5.08,2.12.23,3.76.76,4.05,3.51,3.36,31.73,26.68,42.34,52.88,49.87.78.22,1.51.68,2.3.77,5.26.59,8.39-.6,5.42-6.71-3.35-6.9-3.45-15.03-8.22-21.43-13.09-17.55-5.99-37.79-7.06-56.86-.49-8.75-.2-13.19-11.16-8.31-10.16,4.52-21.68,3.53-32.52.58-9.99-2.72-17.92-.35-22.45,9.09-4.53,9.42-12.47,17.34-12.79,28.7-.1,3.44-1.09,6.74-6.65,5.34h-.01Zm62.05,122.93c8.48-.22,12.87-1.73,15.84-8.25,5.37-11.81,14.06-21.24,25.39-27.97,9.55-5.68,8.99-19.68-1.21-25.03-3.91-2.05-8.59-2.6-12.54-4.6-12.2-6.18-25.52-10.51-35.88-19.83-9.28-8.35-21.56-5.94-24.02,6.52-1.78,8.98-6.15,16.74-8.27,25.43-3.45,14.14-6.87,26.86,8.43,37.94,10.88,7.88,22.8,11.36,32.27,15.78h-.01Zm27.46,62.01c5.79,1.02,8.36-2.95,10.26-7.06,2.07-4.48,4.12-9.94-.47-13.7-6.81-5.58-9.46-13.94-15.02-20.19-3.63-4.09-7.05-8.46-14.14-8.03-13.41.82-26.95.84-39.89-4.03-1.97-.74-4.45-1.21-5.7.58-1.49,2.14-.48,4.61.88,6.82,4.01,6.53,9.68,12.39,13.07,18.7,11.34,21.12,31.45,23,51,26.92h.01Zm15.77-66.27c7.25-8.45,13.92-12.87,17.85-19.94,1.13-2.04,1.43-3.87-.66-5.17-.68-.42-2.84,0-3,.48-2.78,8.22-13.71,11.28-14.19,24.64h0Z"/>
  <path class="cls-1" d="m1515.09,749.98c0-20.38.49-40.77-.13-61.13-.69-22.27,2.15-43.95,7.96-65.37,3.55-13.11,10.75-16.79,23.82-11.48,2.95,1.2,5.37,3.26,8.79,3.96,18.04,3.73,32.06,11.71,32.46,33.02.2,10.63,1.09,21.28.73,31.89-.22,6.51-6.23,8.62-11.46,8.7-11.15.15-24.09,3.71-31.33-8.32-3.21-5.34-2.69-12.79,5.02-17.39,1.28,4.78,1.84,9.26,3.66,13.17,3.04,6.54,8.89,8.53,15.45,6.26,5.94-2.06,6.69-6.61,5.83-12.87-1.92-14.01-2.16-28.33-11.67-40.05-1.77-2.19-3.4-4.75-5.68-6.24-18.68-12.22-22.77-8.87-26.68,13-4.53,25.33-1.71,50.42-1.63,75.53.14,44.5,5.51,88.69,15.74,132.03,2.53,10.74,7.48,21.34,14.04,30.75,2.06,2.96,4.28,5.93,3.78,11.74-10.96-10.47-15.29-23.33-21.16-35.19-10.23-20.69-21.45-40.96-30.37-62.2-18.09-43.06-31.62-86.98-35.11-134.54-2.09-28.54-2.43-57.01-4-85.49-.95-17.2,8.39-32.21,8.48-49.16.03-5.28-.44-9.48-1.76-14.63-2.26-8.79-1.63-17.87,3.2-27.63,8.01-16.17,13.75-33.53,21.96-49.82,3.14-6.22,8.39-10.07,13.11-13.11,9.08-5.84,16.37-1.08,19.71,9.94,4.34,14.34,12.6,27.28,14.32,42.62,3.33,29.78,7.69,59.4,6.47,89.57-.43,10.68,1.85,21.5,3.21,32.21.93,7.33.12,12.7-8.48,6.89-6.66-4.5-14.24-2.96-21.25-4.83-7.39-1.97-10.83-5.26-12.68-12.49-3.61-14.11-8.03-28.02-12.44-41.91-1.2-3.77-3.11-8.96-7.84-8.04-5,.97-4.34,6.54-3.8,10.42,1.58,11.39-3.96,21.54-6.53,31.79-10.36,41.27-6.34,82.17,2.5,122.37,4.24,19.28,10.11,39.31,23.78,56.02h-.02Zm8.59-314.62c-7.63,9.42-13.45,18.95-16.27,29.23-3.77,13.78-9.49,28.07-3.8,42.68,7.92,20.36,18.88,39.45,23.54,61.23,1.52,7.09,3.95,19.17,14.05,16.78,6.77-1.61,8.74-12.14,8.48-20.66-.93-30.18-6.6-59.7-11.7-89.32-2.39-13.9-5.07-27.6-14.3-39.94h0Z"/>
  <path class="cls-1" d="m409.27,582.78c6.37-4.18,12.47,2.06,20.1-1.9-16.43-5.54-28.79-14.44-39.45-25.64-5.15-5.41-8.09-8.18-15.2-.59-9.49,10.13-25.28,12.03-34.61,23.84-8.88,11.23-17.79,21.57-17.52,37.32.31,18.31,19.11,36.36,37.68,35.6,18.46-.76,36.16-5.91,54.19-8.87,16.85-2.77,33.65.17,50.12-2.42,11.72-1.84,20.54.15,27.14,10,1,1.49,5.28,2.59,1.54,5.32-1.69,1.23-3.28,3.32-6.13.44-8.2-8.29-19.83-6.94-29.81-7.99-25.6-2.7-50.65,2.24-75.65,8.37-15.87,3.9-30.68,3.19-47.32-6.26-21.58-12.26-30.9-27.84-32.79-50.78-1.25-15.2,10.23-23.39,18.23-32.89,7.35-8.73,17.19-15.49,26.41-22.48,10.95-8.3,15.86-19.37,16.4-32.59,1.61-39,12.96-73.89,42.16-101.36,1.47-1.38,3.49-2.16,5.05-3.45,4.53-3.76,11.04-8.43,14.89-3.74,3.86,4.71-4.6,7.34-7.69,10.26-8.34,7.87-15.87,16.36-18.43,27.49-2.26,9.81,4.3,17.67,10.46,24.25,8.77,9.36,19.05,17.29,28.04,26.47,18.93,19.32,29.32,42.04,26.2,69.82-1.36,12.13-14.77,25.36-30.69,29.66-9.88,2.67-16.92.38-23.34-7.87h.02Zm-18.28-75.8c.13,20.26,7.18,38.71,24.71,52.83,5.44,4.38,11.22,11.44,17.53,8.26,6.84-3.45,3.31-12.48,2.36-18.97-2.79-19.13-13.25-34.28-25.87-48.33-4.44-4.95-9.87-10.9-15.48-9.73-5.04,1.05-1.46,9.32-3.25,15.94h0Z"/>
</svg>