<?xml version="1.0" encoding="UTF-8"?>
<svg id="Layer_1" data-name="Layer 1" xmlns="http://www.w3.org/2000/svg" viewBox="0 0 1851.58 1146.3">
  <defs>
    <style>
      .cls-1 {
        fill: #fff;
      }
    </style>
  </defs>
  <path class="cls-1" d="m1065.21,825.14c13.85,3.03,19.36,11.67,13.95,23.43-2.69,5.86,1.4,6.25,4.22,7.4,3.84,1.57,7.97.47,7.76-4.31-.96-21.78,6.78-44.75-11.55-64.16-5.08-5.38-6.26-14.43-14.7-18.18-7.35-3.26-12.28-.97-14.67,5.59-5.45,14.97-13.17,29.75-7.11,46.58,1.01,2.8,3.27,6.4-2.55,7-8.83.92-11.56,8.34-12.32,14.84-2.83,24.42-5.56,48.43-1.61,73.65,3.09,19.69,5.07,40.23,5.51,60.55.75,34.84,5.97,69.19,11.68,103.48,1.88,11.28,4.69,22.55,5.12,33.89.27,7.01,5.02,12.56,4.63,21.22-5.42-7.42-6.72-14.56-8.19-21.59-6.14-29.51-13.48-58.89-16.52-88.86-2.2-21.71-2.8-43.61-5.24-65.36-4.48-39.99-6.05-80.09-7.13-120.33-.91-33.79-2.54-67.65-4.11-101.44-1.4-29.99,2.24-59.79.5-89.69-.37-6.43.09-12.31-6.45-16.9-4.65-3.26-5.41-9.93-6.72-15.53-1.24-5.27-3.97-7.39-9.34-5.54-1.68.58-3.46.97-5.22,1.16-23.38,2.44-27.17,6.91-20.98,29.76,2.61,9.62,3.24,19.01,3.11,28.58-.17,12,4.81,23.18,5.51,34.71,1.8,29.74,1.93,59.56,4.76,89.29,1.63,17.14.47,34.52.85,51.8.11,5.36,4.23,9.49,4.93,15.09,2.66,21.46,1.69,42.82-.07,64.23-2.33,28.37.16,56.46,4.66,84.46.97,6.01,1.58,12.13,1.79,18.21.46,13.04,7.75,23.86,12.55,38.15-10.84-10.27-13.66-22.05-17.29-32.94-8.1-24.28-5.06-50.41-11.07-75.08-5.21-21.37-4.42-43.4-7.49-64.79-3.76-26.2-11.99-52.14-21.55-76.94-3.88-10.06-12.13-23.36-27.05-21.95-9.84.93-17.99,7.49-24.17,15.68-15.07,19.95-13.49,42.98-13.27,66.15.19,20.09,10.08,34.22,23.65,47.12,2.33,2.22,4.58,3.73,7.47,2.61,3.04-1.18,1.24-4.48,2.02-6.65,2.79-7.74,1.9-16.04,4.74-23.95,2.87-8.01,1.49-16.75-3.29-24.63-3.64,2.25.04,9.65-6.48,8.37-4.69-.92-5.06-5.64-5.77-9.45-1.3-6.97,1.4-13.44,3.07-19.99.64-2.51,2.77-3.76,5.71-4.06,10.91-1.09,26.1,15.19,22.72,25.42-5.7,17.26-4.09,35.69-9.55,53.09-1.96,6.25-5.83,12.17-5.82,19.27,0,2.2-3.61,6.11-5.58,1.3-4.58-11.16-15.27-16.67-22.2-25.69-19.9-25.9-28.4-53.34-22.07-86.68,3.5-18.42,13.78-30.19,25.38-41.89,16-16.14,16.16-15.04,35.96-3.09,9.61,5.8,16.23,13.5,21.92,22.57,1.73,2.75,3.42,5.29,7.69,7.13-8.89-65.4-8.27-130.62-12.38-196.03-9.62,1.59-16.15,3.17-17.84,15.54-2.43,17.83-18.98,26.52-36.74,21.52,10.15-4.06,20.32-9.41,19.82-19.12-.91-17.96,10.91-20.3,23-21.74,9.49-1.13,11.08-5.24,9.94-13.35-3.16-22.47-5.96-44.98-9-67.47-.23-1.71-.83-3.82-2.02-4.9-15.21-13.7-30.72-27.06-51.87-37.09,8.28,13.77,15.24,25.19,22.93,36.31-8.62-1.89-12.44-9.27-17.87-14.38-16.42-15.46-26.22-35.51-36.27-55.35-15.49-30.59-19.99-63.84-24.76-97.14-3.42-23.88-5.81-47.55-2.31-71.76,2.56-17.71,10.07-33.77,14.27-50.8,6.72-27.3,18.64-52.22,35.01-74.36,10.41-14.07,23.43-26.94,38.67-36.78-3.23,10.3-11.63,16.36-18.64,23.44-22.4,22.56-38.18,48.82-45.85,79.86-2.97,12-8.55,23.08-11.69,35.21-5.83,22.47-9.69,44.74-4.96,67.58,5.72,27.67,12.68,54.99,27.2,79.81,3.65,6.24,4.4,14.19,6.27,21.24,7.22,27.31,27.16,42.5,49.48,55.85,4.58,2.74,9.14,5.38,13.53,8.47,5.17,3.64,8.76,3.93,9.19-4.66.98-19.33,1.32-38.95,5.14-57.8,2.69-13.28,4.24-25.49-.68-38.13-2.68-6.93,4.85-10.82,4.66-17.57-.8-26.94-.63-53.9-.75-80.85-.07-14.74,0-29.47,0-44.88,6.83,3.76,3.33,8.93,2.83,13.07-1.44,12.18,1.43,24.04,2.43,35.98,2.44,29.09-.47,58.4,2.18,87.25,4.37,47.59-.3,95.89,11.02,142.85,2.71,11.26,5.99,22.25,5.61,34.41-6.19-4.68-4.23-13.49-10.91-16.98.04,6.55.26,13.1.09,19.64-.25,9.64,3.97,18.92,1.95,28.76-1.04,5.04,2.4,5.44,6.64,5.32,10.24-.3,19.36-4.87,29.11-7.02,3.38-.75,3.33-4.19,3.54-7.12,2.16-28.63,3.42-57.36,6.89-85.83,2.43-19.95,3.71-40.21,9.47-59.73,1.38-4.68.67-9.97.97-14.98.32-5.4.28-11.03,7.24-12.88-3.72,47.61-13.14,94.81-10.38,143.3,12.3-16.74,26.22-31.46,41.36-45.12,15.63-14.11,29.7-29.86,46-43.29,2.89-2.38,6.78-4.16,6.98-9.68.83-22.82,2.83-45.61,3.62-68.43.71-20.07-4.16-39.52-7.49-59.2-3.14-18.55-7.49-36.72-11.77-54.96-1.59-6.76-3.76-13.41-6.04-21.45,6.45,2.16,8.71,5.43,10.71,10.43,9.61,23.97,12.47,49.38,17.77,74.35,5.35,25.24,8.84,50.5,9.77,76.13.71,19.4.37,38.84.06,58.26-.13,8.18-1.45,16.34-2.09,24.51-.19,2.51-1.25,4.1-3.68,4.52-2.6.45-4.07-1.33-4.94-3.33-3.81-8.75-9.35-6.48-15.05-2.41-27.58,19.71-52.94,41.86-73,69.4-4.24,5.82-7.52,12.85-8.04,21.95,19.07-1.94,37.81-10.8,59.13.92-12.94-.16-22.86,3.46-33.29,4.8-1.42.18-2.88.12-4.32.06-7.33-.33-17.04-.7-19.38,5.84-2.11,5.89,1.71,14.42,7.37,20.05,12.48,12.41,6.48,26.95,3.32,40.28-4.06,17.14-4.42,34.65-7.33,51.88-3.51,20.76-.44,41.96-1.44,62.98-.44,9.28-4.44,20.27,2.33,31.17,4.53-27.75,22.93-49.98,22.15-79.16,6.51,14.47,22.17,18.91,29.93,30.37,10.35,15.29,20,31.67,24.67,49.81,3.5,13.57,5.78,28.07-2.88,40.96-5.84,8.7-14.48,9.24-22.81,2.61-10.97-8.71-12.03-20.43-10.52-33.1l-.02.02Z"/>
  <path class="cls-1" d="m491.03,253.15c-16.03,10.29-26.31,24.9-38.18,37.91-19.78,21.67-32.78,45.84-30.87,77.36,1.97,32.43,11.91,64.46,6.04,97.28-5.13,28.64-5.73,57.93-13.8,86.18-6.61,23.13-18.53,43.13-32.52,62.21-1.59,2.16-1.73,2.05-9.01,4.59,6.12-16.41,13.45-31.52,18.06-47.69,11.73-41.2-3.09-65.21-30.76-90.69-4.34-4-9.5-3.44-13.76-.51-3.96,2.73-7.79,4.56-12.79,4.79.37-1.06.43-1.73.78-2.16,2.93-3.6,10.92-3.57,10.29-8.05-.78-5.5-8.04-5.94-13.02-7.48-7.46-2.3-14.99-4.34-23.29-6.72,5.19-5.22,10.25-3.67,15.24-2.05,7.12,2.29,14.06,5.24,21.31,6.92,8.32,1.93,10.69-1.17,7.96-9.19-5.17-15.21-31.12-26-46.12-18.87-19.91,9.46-31.1,26.2-39.23,46.09-8.66,21.19,1.96,35.74,14.64,50.33,12.18,13.99,26.74,26.29,32.23,45.17,1.1,3.78,3.06,7.3,2.72,11.41-1.19,14.47,6.83,21.5,19.13,27.34,8.7,4.12,16.77,11.06,23.05,18.5,11.71,13.85,7.98,33.64-8.37,42.43-36.56,19.67-74.04,37.72-115.06,45.97-19.58,3.94-39.89,2.96-59.91,3.18-7.1.08-13.91-.16-21.08,2.14-15.02,4.82-34.71-9.96-38.11-25.24-5.69-25.56-2.49-50.8,2.19-75.63,2.96-15.66,12.88-29.09,22.27-42.32,14.29-20.14,33.43-33.14,55.78-42.53,15.46-6.49,22.35-1.9,21.06,15.13-.57,7.56-2.19,14.71-10.27,22.58,3.43-11.31,8.28-19.72,4.26-29.06-6.47.56-7.59,7.03-11.5,10.3-19.73,16.52-41.45,31.81-52.03,56.32-11.6,26.85-22.56,54.42-15.14,84.72,2,8.17,7.63,13.93,18.65,11.87-4.23-6.5-4.24-13.18-2.82-19.7.66-3.02,3.26-6.42,6.99-5.21,4.98,1.61.54,4.55,0,6.69-1.9,7.44,3.83,15.75,11.96,16.43,21.89,1.84,43.47,0,64.78-5.47,31.5-8.09,59.96-22.7,87.29-39.87,1.47-.92,3.13-1.88,4.79-2.04,7.6-.76,12.23-4.11,13.92-12.16,2.04-9.69,2.83-17.95-7.51-23.94-13.95-8.09-13.65-8.43-20.93,6.32-4.51,9.14-7.71,19.36-18.37,24.08,10.71-15.26,16.4-32.01,15.74-50.54-.75-21.1-7.35-38.97-24.73-53.18-18.21-14.88-33.1-33.45-40.67-56.18-4.45-13.35.62-26.93,6.75-38.78,2.63-5.09,5.48-10.6,9.04-15.48,15.29-21,33.27-36.43,61.71-33.33,17.45,1.9,39.02,18.18,43.72,34.57,1.52,5.29.85,11-1.69,15.82-2.79,5.28-.77,7.63,3.64,10.12,10.52,5.92,19.64,13.61,27.9,22.43,1.97,2.11,4.97,5.08,8.4,3.43,3.78-1.82,2.18-5.84,1.57-8.67-2.79-12.93-6.51-25.58-7.69-38.93-1.36-15.21-3.61-29.91.18-45.47,3.41-13.99,2.47-28.84,7.1-43.04,11.83-36.36,33.35-66.1,60.24-92.45,5.82-5.7,12.14-10.87,18.25-16.28,2.04-1.82,3.67-4.71,9.69-1.69h-.05Zm-79.11,201.35c3.61-11.85,2.25-23.22-3.52-34.16-4.4,11.93-1.05,23.11,3.52,34.16Z"/>
  <path class="cls-1" d="m1729.93,736.91c-5.24-44.66-13.78-87.42-47.02-120.64-.75,9.03,10.13,13.75,8.39,24.08-9.06-6.63-13.45-16.06-15.97-25.18-4.78-17.33-18.47-22.43-32.58-23.95-19.57-2.11-38.39-7.28-54.24-17.31-18.03-11.41-35.7-24.29-50.64-40.12-2.22-2.35-3.88-7.5-8.22-4.19-4.16,3.18-1.36,8.31.88,10.52,23.29,23.13,33.69,53.19,44.63,82.79,4.46,12.06,1.58,25.4,2.57,38.14.66,8.49-1.12,17.34,1.07,25.83,1.97,7.67,2.32,15.31,2.21,23.18-.5,37.41,4.74,74.26,13.83,110.37,6.03,23.94,15,47.13,22.44,70.73,3.47,11,9.34,21.39,9.3,35.06-8.05-12.69-10.37-25.94-15.07-38.22-10.48-27.37-21.84-54.74-26.8-83.57-3.05-17.71-7.33-35.31-8.34-53.67-1.97-35.84-1.72-72.2-11.03-107.16-6.61-24.8-11.28-50.55-25.79-72.67-2.99-4.56-6.56-8.44-11.87-12.55,1.5,35.41,1.3,69.86,8.76,103.82,2.43,11.04,2.54,22.58,3.63,33.9.19,2.06-.72,4.46.06,6.17,1.26,2.78,4.99,5.53-.75,7.05-3.64.97-6.61.12-8.41-4.36-3.36-8.33-1.89-17.09-2.75-25.52-3.73-36.25-8.65-72.27-15.97-107.97-.36-1.74-.28-3.61-.16-5.4,1.52-21.04-6.41-36.67-21.84-51.86-15.84-15.59-32.33-32.16-39.98-54.41-.2-.59.04-1.33.11-2.46,3.81-.44,5.72,2.03,7.23,4.78,11.22,20.48,32.17,26.68,51.55,35.09,3.76,1.63,4.95-1.11,5.13-4.54,1.11-21.48,4.35-42.76,4.58-64.36.3-29.01,5.4-57.63,9.05-86.34,2.29-18.02,6.71-35.79,5.82-54.16-.2-4.13.13-7.39,4.2-11.05,7.32-6.61,2.46-16.15,1.97-24.38-.43-7.35-2.33-14.62-3.87-23.54,11.21,9.58,12.76,22.53,17.43,33.59,15.5,36.63,11.07,75.58,13.77,113.91,1.61,22.86,2.93,46.67,13.87,69.3,10.2,21.1,27.34,35.49,40.06,53.84,5.31,7.65,9.94,15.97,13.17,24,5.52,13.69,14.04,25.08,21.56,37.29,13.14,21.36,32.55,37.61,47.04,57.93,3.48,4.89,2.46,10.23,4.99,14.94,9.91,18.38,15.56,38.21,20.05,58.53,2.22,10.06,6.12,19.76,9.47,29.55,1.01,2.96,1.24,2.65-2.85,4.4-4.82,2.07.11,8.51-4.67,10.84l-.02-.02Zm-187.43-368.89c-3.6,5.38-3.84,9.76-4.69,14.18-2.97,15.43-.03,31.45-4.38,46.58-2.9,10.05-5.98,19.63-6.69,30.46-1.07,16.34,3.72,31.62,4.53,47.43.36,6.94,2.84,10.79,8.3,13.49,27.84,13.78,55.32,27.89,79.74,47.69,10.75,8.71,24.31,13.93,37.82,21.43-.56-2.9-.46-3.87-.87-4.21-21.5-17.76-34.91-42.54-53.99-62.3-17.01-17.63-31.45-37.61-50.22-53.61-8.45-7.19-6.52-20.76,3.67-24.62,5.27-2,6.26-4.67,6.12-9.47-.64-23.62-11.92-43.94-19.34-67.06h0Zm-56.76,128.39c-.53.84-1.05,1.68-1.58,2.54,6.53,6.15,12.91,12.49,19.67,18.36,2.37,2.05,5.41,6.87,8.72,3.06,2.41-2.77.16-7.37-2.64-10.09-6.9-6.69-15.69-10.05-24.18-13.86h0Z"/>
  <path class="cls-1" d="m1385.3,153.57c3.96,2.61,3.55,5.3,2.48,7.52-6.88,14.34-4.88,30.1-7.62,45.09-2.54,13.88-1.57,27.8-2.22,41.7-1.29,27.65,6.2,54.66,4.99,82.43-.82,18.63-2.79,36.63-8.64,54.31-3.99,12.08-7.38,24.36-10.84,36.62-2.14,7.61.72,14.69,2.66,22.99,5.81-5.47,1.03-11.64,3.16-16.61.96-2.22.9-5.58,4.03-5.1,3.29.51,2.71,3.92,2.27,6.26-2.44,13.07.64,24.07,11.09,32.87,4.41,3.72,8.34,8.15,5.88,15.32-4.54-.54-4.8-6.76-10.01-7.55,2.21,15.94-1.93,31.67-.54,47.35,1.69,19.14-1.24,38.03-1.99,56.97-.61,15.25-3.33,30.37-.53,45.67.3,1.63.25,3.16-1.38,3.36-3.04.38-6.99,1.86-8.65-1.91-3.44-7.83-6.95-3.67-10.23-.32-17.59,17.98-22.54,39.71-16.75,63.57,1.72,7.09,2.86,13.87,2.9,21.05.02,4.64-.4,9.7,1.24,13.83,2.52,6.34,5.58,10.2-4.64,13.19-3.74,1.09-6.69,12.02-6.31,18.22.47,7.54-3.91,14.47-1.68,22.07-3.52-7.9-6.49-16.16-5.32-24.53,4.77-33.89-13.66-54.67-39.17-71.8-2.27-1.53-3.31-4.84-6.77-4.69-1.53,9.39,11.43,14.27,7.17,27.11-6.38-12.36-11.74-22.75-17.09-33.13-3.73,22.33-10.26,43.34-5.02,66.7,4.78,21.28,14.85,43.18,4.91,65.31-3.36-11.15-1.12-24.28-6.98-35.9-12.93-25.7-22.31-52.91-31.77-79.96-7.48-21.37-12.74-43.61-17.78-65.73-6.12-26.87-11.58-53.91-16.08-81.09-2.38-14.36-7.7-28.15-9.02-42.44-1.99-21.67.88-43.21,6.96-64.31,2.82-9.77,1.75-20.23-.97-29.8-7.07-24.91-8.47-50.8-16.62-75.82-7.64-23.45.63-47.83,15.11-68.7.18,12.52-5.16,24.22-9.04,35.23-5.1,14.45,1.31,25.58,5.55,36.07,5.76,14.25,10.32,28.37,13.27,43.34,1.81,9.15,5.76,17.85,8.14,26.92,3.03,11.52,3.54,22.68-.4,34.71-3.83,11.65-2.78,24.85-6.16,36.71-4.76,16.7,2.19,32.03,3.21,47.99.25,3.9.26,7.8.51,11.7,2.14,33.86,11.41,66.56,16.71,99.92,3.34,21.06,8.49,42.1,16.37,62.21.99,2.53.31,6.49,4.32,6.19,3.9-.3,4.89-3.45,4.77-7.16-.54-17.04,5.71-34.08-.14-51.14-.66-1.91,0-5.64,2.57-4.38,8.52,4.19,8.14-3.32,10.48-7.22,3.65-6.13,6.48-12.87,10.83-18.45,12.7-16.34,12.52-34.08,7.6-52.88-2.97-11.35-.03-22.74,1.16-34.09.6-5.66,6.49-3.84,9.28-6.92-4.18,12.6-5.84,24.85-3.56,37.83,1,5.68,3.25,10.59,6.48,14.38,9.86,11.56,5.01,21.38-2.16,31.31-8.26,11.46-12.32,24.83-15.98,38.08-2.01,7.26,4.21,14.13,8.42,19,11.93,13.79,22.36,29.23,37.74,39.75,2.25,1.54,4.75,4.68,7.53,2.87,3.18-2.06.3-5.3-.37-7.83-4.81-18.08-6.63-36.34-4.25-54.99.57-4.42,1.61-7.77,5.55-10.81,13.91-10.7,22.5-25.85,31.22-40.58,4.94-8.35,1.28-18.37,1.81-27.6,1.09-19,.94-38.06,1.4-57.09.25-10.09-2.23-20.04-8.46-27.23-5.69-6.57-8.03-12.99-8.15-21.11-.21-12.91-9.07-21.46-16.35-30.58-3.96-4.96-3.85-7.66-.38-13.51,11.16-18.78,26.08-36.63,30.42-57.87,4.01-19.65,1.42-40.8.59-61.24-.34-8.32,1.3-16.29,1.37-24.51.24-26.33.75-52.7,6.53-78.6,2.23-9.99,6.02-19.34,11.31-28.51h.02Zm-25.07,221.12c-3.13,7.02-6.15,14.1-9.43,21.05-2.11,4.47-5.11,8.56-6.76,13.16-1.25,3.49,0,7.74,4.11,8.37,3.84.59,4.11-3.61,3.91-6.2-.42-5.32,2.23-9.46,3.91-14.09,2.59-7.11,7.15-13.75,4.25-22.29h0Z"/>
  <path class="cls-1" d="m721.59,536.95c-14.63,2.25-21.08,11.81-30.07,17.33-5.97,3.68-4.71,10.46-4.22,15.77,1.71,18.67-.98,37.29-.67,55.6.29,16.59-5.11,31.81-4.92,48.02.11,9.2-4.78,18.1-6.37,27.54-3.56,21.2,1.57,41.81,2.47,62.68.43,9.91.56,19.64,3.71,29.5,2.47,7.71-1.24,16.57-4.44,23.95-7.31,16.83-3.82,33.58-1.53,50.37,1.91,13.99,4.71,27.87,6.26,41.99-7.92-8.19-7.69-19.12-10.25-29.01-7.59-29.46-11.84-59.4-11.53-89.87.27-25.79.64-51.56,2.65-77.31,1.17-14.93,1.41-29.87,2.83-44.85,2.8-29.47,1.54-59.36,1.19-89.06-.08-6.41-4.04-12.43-4.38-19.44-.34-7.18-3.94-14.3,8.22-13.27,2.36.2,2.9-2.59,3.06-4.92,1.42-20.56,10.53-46.79,22.25-63.52,2.21-3.16,5-5.55,9.15-6.98,9.24-3.18,13.65-12.36,9.99-21.49-13.86-34.59-12.18-70.74-10.86-106.75.39-10.49,3.96-20.88,6.21-31.29.63-2.92,3.61-3.49,5.88-5.26,2.2,11.62-1.07,22.66-2.37,33.41-2.63,21.79,4.17,42.16,5.88,63.22,2.05,25.29,14.03,48.03,19.39,72.51.78,3.57,1.25,7.01,1.22,10.62-.04,3.66.32,8.04-4.04,8.93-4.79.98-3.11-4.66-4.87-6.27-3.01-2.77-4.49-8.19-12.27-3.2-13.84,8.87-19,22.38-25.36,35.66-1.14,2.38-2.22,6.05.55,7.95,2.32,1.6,5.45.75,8.21-.45,29.63-12.8,60.52-20.82,92.51-24.9,4.54-.58,8.87-2.85,13.42-3.61,2.36-.39,6.12-2.34,7.28,1.63.89,3.03-2.27,4.12-4.4,5.32-14.4,8.06-29.58,15-43.06,24.38-15.75,10.96-34.91,17.82-44.68,36.63-10.29,19.83-12.56,41.05-10.82,62.45,1.03,12.56.81,25.15,2.1,37.65,1.77,17.14,3.76,34.02,19.92,45.06,7.33,5.01,9.92,13.74,9.31,21.9-2.34,31.14-14.67,59.42-27.81,87.58,1.75-9.93,2.86-20.03,5.38-29.76,6.43-24.82,5.66-49.5-.8-74.02-1.08-4.1-4.61-8.37-8.19-10.85-12.53-8.68-16.24-22.14-17.04-35.35-1.48-24.35-2.97-49.19.33-73.17,2.97-21.56,8.54-43.71,25.55-63.02h0Z"/>
  <path class="cls-1" d="m577.6,536.75c33.81-24.59,69.53-45.34,111.24-58.62-5.07,9.77-11.7,15.82-18.88,21.5-29.96,23.73-53.16,51.76-58.59,91.38-1.75,12.71.52,25,2.33,37.33,1.66,11.23,4.99,22.13,6.26,33.53,1.27,11.39,10.72,17.26,20.14,20.95,6.62,2.61,10.91,6.44,11.14,12.64.84,22.23,2.35,44.54-1.39,66.69-.28,1.68-1.19,3.26-2.44,6.53-1.94-3.84-5.19-4.52-3.93-9.24,4.91-18.53,1.89-36.79-3.82-54.59-3.53-11.03-14.73-15.05-23.08-20.79-11.13-7.66-16.64-18-20.78-29.69-11.75-33.15-10.61-67.38-7.46-101.79-20.71,4.28-21.5,14.46-17.51,33.11,5.26,24.58,8.38,49.5,13.58,74.07,5.24,24.77-8.29,44.18-19.89,63.81-6.37,10.77-13.49,21.24-21.36,30.97-11.63,14.37-18.67,31.09-26.64,47.4-.84,1.73-.84,4.49-5.41,4.82,3.77-14.06,9.7-26.69,16.17-38.89,10.72-20.21,23.4-39.04,28.25-62.43,2.69-13.02,8.85-25.55,7.63-39.24-1.03-11.5-3.53-22.78-7.05-33.99-3.47-11.08-3.97-23.1-5.72-34.72-1.06-7.03-2.02-14.06-3.01-21.03-3.47-1.67-3.14,1.59-4.33,3.03-1.1,1.32-2.66,2.81-4.51,1.11-1.47-1.33-1.87-3.27-.48-4.81,19.91-22,17.05-51.95,26.57-77.65,12.09-32.64,29.7-60.64,52.26-86.6,11.96-13.76,24.65-26.46,38.48-38.13,5.45-4.6,11.08-9.52,21.31-10.32-9.44,8.43-17.86,14.82-24.92,22.46-17.83,19.33-33.31,40.34-44.4,64.46-11.97,26.03-21.14,53.05-29.93,80.24-.53,1.63-1.97,3.13.11,6.48h.03Z"/>
  <path class="cls-1" d="m839.27,531.58c-12.58.64-23.18,1.64-32.59,7.6-5.45,3.45-7.83,5.2-.24,9.78,20.85,12.56,39.13,28.32,55.2,46.76,10.27,11.78,15.24,43.67,7.71,56.99-2.89,5.1-8.78.91-12.49,3.81,1.26,3.61,4.52,2.74,7.17,3.47,27.29,7.57,39.8,20.41,44.4,47.5,3.66,21.57-9.51,43.52-29.73,52.16-6.16,2.63-11.21,7.65-18.36,8.26-9.82.84-18.91-.75-27.67-5.72-15-8.52-17.52-16.3-9.05-31.17,3.9-6.85,13.31-9.15,21.73-5.3-10.78,4.58-14.75,11.13-11.62,19.16,2.46,6.31,13.88,11.06,22.59,7.6,8.79-3.49,17.98-6.87,25.41-13.07,16.11-13.44,13.67-45.82-3.99-57.34-8.85-5.77-18.57-9.02-28.8-11.06-5.78-1.16-10.43.31-13.99,5.3-13.03,18.32-30.2,30.73-52.2,36.03-34.76,8.38-61.62-15.94-60.81-45.44.52-18.93,12.06-34.64,25.76-47.8,4.07-3.91,8.47-7.61,13.18-10.7,2.66-1.75,3.11-3.21,2.55-6.07-3.11-15.73-2.95-32.09-8.99-47.26-1.25-3.11,1.54-3.58,2.89-4.87,18.63-17.77,41.75-22.54,66.33-22.06,4.41.09,9.77-3.36,15.61,3.47v-.02Zm8.94,121.64c-17.69-3.73-35.73-10.42-52.12,3.43-3.7,3.13-7.16,2.76-9.22.32-2.5-2.96-.92-6.23,2.66-8.84,4.29-3.13,6.25-9.56,13.59-8.12,2.12.41,5.19-1,4.23-4.64-2.54-9.5-23.85-24.82-33.31-23.02-10.58,2.01-15.85,11.31-21.4,19.14-5.63,7.96-11.38,16.16-12.58,26.57-1.04,8.95,5.18,14.48,8.75,21.22,2.8,5.28,6.2-.59,9.29-.04,1.21.22,2.67,1.17,3.28,2.21.92,1.57-.68,2.4-1.79,3.3-1.62,1.32-5.97.76-3.96,4.71,1.21,2.36,3.9,2.7,6.57,2.94,17.98,1.58,34.04-5.01,45.85-16.92,11.71-11.82,23.21-20.84,40.17-22.27h-.02Zm-4.09-24.13c-2.3-8.12-3.22-17.94-7.67-25.74-9.79-17.18-23.52-30.78-43.04-37.18-1.98-.65-4.09-2.51-5.77-.28-1.75,2.32-3.13,5.95-1.16,8.04,5.08,5.37,5.74,12.52,8.16,18.78,7.87,20.33,23.55,32.1,41.97,41.48,5.19,2.64,8.26,2.83,7.52-5.1h0Z"/>
  <path class="cls-1" d="m1087.05,600.99c2.11-6.83,2.39-14.05,1.33-20.95-1.73-11.34,9.25-16.93,10.94-26.78.63-3.69,5.74-1.98,8.43-.42,26.41,15.26,49.69-3.51,54.85-31.52,1.35-7.33,4.57-14.3,3.76-22.07-.22-2.05-1.06-5.78,3.14-5.24,3.26.42,3.5,3.5,3.14,5.97-1.47,9.95-2.61,19.91-1.49,29.94,1.83,16.45-.32,33.49,7.14,50.49,2.12-9.55-1.26-18.53,3.96-26.51,6.97,2.05,5.54,8.2,5.43,12.96-.47,19.76-3.13,39.99,2.72,58.96,6.56,21.31,2.83,44.9,16.92,64.81,5.63,7.96,4.21,20.63,4.27,31.9-10.02-7.81-4.92-20.65-11.58-30.09-5.04,7.43-10.66,13.65-17.71,18.47-4.97,3.4-3.64,8-1.69,12.43,2.4,5.45,5.06,10.78,7.46,16.24,5.12,11.63-.48,23.18-12.83,26.65-8.9,2.49-15,2.29-28.3-1.04,4.76,8.15,13.03,12.16,18.78,18.48,5.6,6.15,12.7,12.83,10.64,24.82-12.12-22.43-34.14-32.87-49.77-49.8-10.79-11.7-25.15-18.69-34.99-31.94-17.04-22.94-19.28-47.55-13.77-73.83,2.25-10.7,8.26-20.3,14.27-29.41,2.63-3.98,5.5-8.07,12.41-8.42,6.01-.31,9.11-7.33,9.86-13.64.37-3.05,1.13-4.81,4.44-4.46,1.86.2,3.3.67,3.55,3.08,2.95,27.84,23.41,37.15,46.4,43.75.68.19,1.32.6,2.02.68,4.62.52,7.36-.53,4.76-5.89-2.94-6.05-3.03-13.19-7.21-18.8-11.48-15.4-5.26-33.16-6.19-49.89-.43-7.68-.18-11.57-9.79-7.29-8.91,3.97-19.02,3.1-28.53.51-8.76-2.39-15.72-.31-19.7,7.98-3.97,8.26-10.94,15.21-11.22,25.18-.09,3.02-.96,5.91-5.83,4.69h0Zm54.44,107.86c7.44-.19,11.29-1.52,13.9-7.24,4.71-10.36,12.34-18.64,22.28-24.54,8.38-4.98,7.89-17.27-1.06-21.96-3.43-1.8-7.54-2.28-11-4.04-10.7-5.42-22.39-9.22-31.48-17.4-8.14-7.33-18.92-5.21-21.07,5.72-1.56,7.88-5.4,14.69-7.26,22.31-3.03,12.41-6.03,23.57,7.4,33.29,9.55,6.91,20,9.97,28.31,13.85h0Zm24.09,54.41c5.08.89,7.33-2.59,9-6.19,1.82-3.93,3.61-8.72-.41-12.02-5.97-4.9-8.3-12.23-13.18-17.71-3.18-3.59-6.19-7.42-12.41-7.05-11.77.72-23.65.74-35-3.54-1.73-.65-3.9-1.06-5,.51-1.31,1.88-.42,4.04.77,5.98,3.52,5.73,8.49,10.87,11.47,16.41,9.95,18.53,27.59,20.18,44.75,23.62h0Zm13.84-58.14c6.36-7.41,12.21-11.29,15.66-17.49.99-1.79,1.25-3.4-.58-4.54-.6-.37-2.49,0-2.63.42-2.44,7.21-12.03,9.9-12.45,21.62h0Z"/>
  <path class="cls-1" d="m1442.83,788.4c0-17.88.43-35.77-.11-53.63-.61-19.54,1.89-38.56,6.98-57.35,3.11-11.5,9.43-14.73,20.9-10.07,2.59,1.05,4.71,2.86,7.71,3.47,15.83,3.27,28.13,10.27,28.48,28.97.18,9.33.96,18.67.64,27.98-.19,5.71-5.47,7.56-10.05,7.63-9.78.13-21.14,3.26-27.49-7.3-2.82-4.69-2.36-11.22,4.4-15.26,1.12,4.19,1.61,8.12,3.21,11.56,2.67,5.74,7.8,7.48,13.56,5.49,5.21-1.81,5.87-5.8,5.12-11.29-1.68-12.29-1.9-24.86-10.24-35.14-1.55-1.92-2.98-4.17-4.98-5.47-16.39-10.72-19.98-7.78-23.41,11.41-3.97,22.22-1.5,44.24-1.43,66.27.12,39.04,4.83,77.81,13.81,115.84,2.22,9.42,6.56,18.72,12.32,26.98,1.81,2.6,3.76,5.2,3.32,10.3-9.62-9.19-13.42-20.47-18.57-30.87-8.98-18.15-18.82-35.94-26.65-54.57-15.87-37.78-27.74-76.31-30.8-118.04-1.83-25.04-2.13-50.02-3.51-75.01-.83-15.09,7.36-28.26,7.44-43.13.03-4.63-.39-8.32-1.54-12.84-1.98-7.71-1.43-15.68,2.81-24.24,7.03-14.19,12.06-29.42,19.27-43.71,2.75-5.46,7.36-8.84,11.5-11.5,7.97-5.12,14.36-.95,17.29,8.72,3.81,12.58,11.05,23.93,12.56,37.39,2.92,26.13,6.75,52.12,5.68,78.59-.38,9.37,1.62,18.86,2.82,28.26.82,6.43.11,11.14-7.44,6.05-5.84-3.95-12.49-2.6-18.64-4.24-6.48-1.73-9.5-4.62-11.13-10.96-3.17-12.38-7.05-24.58-10.91-36.77-1.05-3.31-2.73-7.86-6.88-7.05-4.39.85-3.81,5.74-3.33,9.14,1.39,9.99-3.47,18.9-5.73,27.89-9.09,36.21-5.56,72.09,2.19,107.36,3.72,16.92,8.87,34.49,20.86,49.15h-.02Zm7.54-276.04c-6.69,8.26-11.8,16.63-14.27,25.65-3.31,12.09-8.33,24.63-3.33,37.45,6.95,17.86,16.56,34.61,20.65,53.72,1.33,6.22,3.47,16.82,12.33,14.72,5.94-1.41,7.67-10.65,7.44-18.13-.82-26.48-5.79-52.38-10.27-78.37-2.1-12.2-4.45-24.22-12.55-35.04h0Z"/>
  <path class="cls-1" d="m472.61,641.7c5.59-3.67,10.94,1.81,17.64-1.67-14.42-4.86-25.26-12.67-34.61-22.5-4.52-4.75-7.1-7.18-13.34-.52-8.33,8.89-22.18,10.55-30.37,20.92-7.79,9.85-15.61,18.93-15.37,32.74.27,16.06,16.77,31.9,33.06,31.23,16.2-.67,31.73-5.19,47.55-7.78,14.78-2.43,29.52.15,43.97-2.12,10.28-1.61,18.02.13,23.81,8.77.88,1.31,4.63,2.27,1.35,4.67-1.48,1.08-2.88,2.91-5.38.39-7.19-7.27-17.4-6.09-26.15-7.01-22.46-2.37-44.44,1.97-66.37,7.34-13.92,3.42-26.92,2.8-41.52-5.49-18.93-10.76-27.11-24.43-28.77-44.55-1.1-13.34,8.98-20.52,15.99-28.86,6.45-7.66,15.08-13.59,23.17-19.72,9.61-7.28,13.92-16.99,14.39-28.59,1.41-34.22,11.37-64.83,36.99-88.93,1.29-1.21,3.06-1.9,4.43-3.03,3.97-3.3,9.69-7.4,13.06-3.28,3.39,4.13-4.04,6.44-6.75,9-7.32,6.9-13.92,14.35-16.17,24.12-1.98,8.61,3.77,15.5,9.18,21.28,7.69,8.21,16.71,15.17,24.6,23.22,16.61,16.95,25.72,36.88,22.99,61.26-1.19,10.64-12.96,22.25-26.93,26.02-8.67,2.34-14.85.33-20.48-6.9h.02Zm-16.04-66.51c.11,17.78,6.3,33.96,21.68,46.35,4.77,3.84,9.84,10.04,15.38,7.25,6-3.03,2.9-10.95,2.07-16.64-2.45-16.78-11.63-30.08-22.7-42.4-3.9-4.34-8.66-9.56-13.58-8.54-4.42.92-1.28,8.18-2.85,13.99h0Z"/>
</svg>