<?xml version="1.0" encoding="UTF-8"?>
<svg id="Layer_1" data-name="Layer 1" xmlns="http://www.w3.org/2000/svg" viewBox="0 0 512 512">
  <defs>
    <style>
      .cls-1 {
        fill: #fff;
      }
    </style>
  </defs>
  <path class="cls-1" d="m284.16,198.92s100.75,145.16,123.44,165.18c22.69,20.02,75.4,70.06,75.4,70.06,0,0-52.04-36.03-91.41-72.73l-123.44-150.8s-14.68-20.02-22.02-20.68-19.35,5.93-26.69,8.97c-7.34,3.04-10.94,1.71-13.4,0s-166.53-9.02-166.53-9.02c0,0,171.7-8.51,189.75-21.32,18.04-12.81,21.54-12.22,33.47-22.41s63.44-52.97,63.44-52.97c0,0,7.28-4.37,2.62-14.55-4.66-10.19,9.31-6.69,15.72-3.2s45.98,25.32,66.64,22.7c20.66-2.62,49.77,2.04,61.99-2.62,0,0-11.93,6.69-33.76,8.73-21.83,2.04-35.21,8.73-58.21,5.53,0,0-16.56-7.47-24.76-5.42s-110.28,40.61-72.25,94.54Z"/>
</svg>