<?xml version="1.0" encoding="UTF-8"?>
<svg id="Layer_2" data-name="Layer 2" xmlns="http://www.w3.org/2000/svg" viewBox="0 0 512 512">
  <defs>
    <style>
      .cls-1 {
        fill: #fff;
      }
    </style>
  </defs>
  <path class="cls-1" d="m239.72,122.34s48.82,149.63,63.06,172.51c14.23,22.88,46.4,79.06,46.4,79.06,0,0-35.19-44.06-59.38-85.44l-66.74-160.24s-7.4-20.83-13.49-23.28c-6.09-2.45-18.03.11-25.07.82-7.04.72-9.77-1.34-11.43-3.43S33.29,52.06,33.29,52.06c0,0,148.68,36.66,167.35,30.36,18.67-6.31,21.5-4.92,34.29-10.56s67.68-28.96,67.68-28.96c0,0,7.32-1.86,5.96-11.74-1.37-9.88,9.66-3.33,14.23,1.29,4.57,4.62,32.75,33.37,51.05,36.42,18.3,3.05,41.94,14.47,53.56,13.62,0,0-11.89,2.66-31.04-1.19-19.14-3.85-32.28-1.56-51.07-10.17,0,0-12.22-10.61-19.74-10.96s-104.48,6.44-85.83,62.18Z"/>
</svg>