<?xml version="1.0" encoding="UTF-8"?>
<svg id="Layer_2" data-name="Layer 2" xmlns="http://www.w3.org/2000/svg" viewBox="0 0 256 256">
  <defs>
    <style>
      .cls-1 {
        stroke: red;
        stroke-miterlimit: 100;
        stroke-width: 2px;
      }
    </style>
  </defs>
  <path class="cls-1" d="m88.68,137.66s-47.31-23.65-54.2-29.51c-6.9-5.87-23.97-19.34-23.97-19.34,0,0,12.9,13.88,25.45,23.97l49.94,30.13s6.56,3.49,7.07,5.64-.93,5.99-1.52,8.29-.04,3.31.57,3.97,9.78,48.95,9.78,48.95c0,0-4.81-51.23-1.79-57.12,3.02-5.89,2.7-6.9,5.21-10.87,2.51-3.97,12.98-21.06,12.98-21.06,0,0,.98-2.34,4.2-1.4,3.22.94,1.59-3.04.28-4.79s-9.46-12.54-9.57-18.77-2.73-14.66-1.87-18.47c0,0-1.47,3.82-1.14,10.37.33,6.55-1.08,10.8.85,17.48,0,0,2.92,4.59,2.66,7.1s-7.32,34.4-24.92,25.44Z"/>
</svg>